# xmcd
#
# Track frame offsets: 
#        150
#        14455
#        28976
#        42566
#        51776
#        67238
#        83187
#        91316
#        106528
#        122693
#
# Disc length: 1994 seconds
#
# Revision: 0
# Processed by: cddbd v1.5.2PL0 Copyright (c) Steve Scherf et al.
# Submitted via: ExactAudioCopy v1.1
#
DISCID=8307c80a
DTITLE=Wormed - Exodromos
DYEAR=2013
DGENRE=Death Metal
TTITLE0=Nucleon
TTITLE1=The Nonlocality Trilemma
TTITLE2=Tautochrone
TTITLE3=Solar Neutrinos
TTITLE4=Multivectorial Reionization
TTITLE5=Spacetime Ekleipsis Vorticity
TTITLE6=Darkflow Quadrivium
TTITLE7=Stellar Depopulation
TTITLE8=Techkinox Wormhole
TTITLE9=Xenoverse Discharger
EXTD=
EXTT0=
EXTT1=
EXTT2=
EXTT3=
EXTT4=
EXTT5=
EXTT6=
EXTT7=
EXTT8=
EXTT9=
PLAYORDER=
